# xmcd CD database file
#
# Track frame offsets:
#	150
#	14450
#	53975
#	71030
#	105185
#	122588
#	158398
#	176708
#	209220
#	227530
#
# Disc length: 3485 seconds
#
# Revision: 0
# Processed by: cddbd v1.5.1PL2 Copyright (c) Steve Scherf et al.
# Submitted via: CDex 1.51
#
DISCID=800d9b0a
DTITLE=Various Artist - 全日本吹奏楽2003 金賞団体の競演 Disc4
DYEAR=2003
DGENRE=Classical
TTITLE0=課題曲IV：マーチ「ベスト・フレンド」/松浦伸吾/埼玉県立与野高等学校吹奏楽部(指揮：齋藤淳)
TTITLE1=交響詩「ローマの噴水」より/O.レスピーギ(arr.斎藤淳)/埼玉県立与野高等学校吹奏楽部(指揮：齋藤淳)
TTITLE2=課題曲II：イギリス民謡による行進曲/高橋宏樹/埼玉栄高等学校吹奏楽部(指揮：大滝実)
TTITLE3=青い水平線(ブルー・ホライズン)/埼玉栄高等学校吹奏楽部(指揮：大滝実)
TTITLE4=課題曲I：ウィナーズ〜吹奏楽のための行進曲/諏訪雅彦/愛知工業大学名電高等学校吹奏楽部(指揮：桐田正章)
TTITLE5=３つの交響的素描「海」よりIII.風と海との対話/クロード・ドビュッシー(arr.小久保大輔)/愛知工業大学名電高等学校吹奏楽部(指揮：桐田正章)
TTITLE6=課題曲I：ウィナーズ〜吹奏楽のための行進曲/諏訪雅彦/東海大学付属高輪台高等学校吹奏楽部(指揮：畠田貴生)
TTITLE7=バレエ音楽「中国の不思議な役人」より/ベラ・バルトーク(arr.畠田貴生)/東海大学付属高輪台高等学校吹奏楽部(指揮：畠田貴生)
TTITLE8=課題曲I：ウィナーズ〜吹奏楽のための行進曲/諏訪雅彦/洛南高等学校吹奏楽部(指揮：宮本輝紀)
TTITLE9=ハリソンの夢/ピーター・グレイアム/洛南高等学校吹奏楽部(指揮：宮本輝紀)
EXTD=YEAR: 2003
EXTT0=
EXTT1=
EXTT2=
EXTT3=
EXTT4=
EXTT5=
EXTT6=
EXTT7=
EXTT8=
EXTT9=
PLAYORDER=
